<svg xmlns="http://www.w3.org/2000/svg" width="200" height="200" viewBox="0 0 64 64"><defs><linearGradient id="c" x1="0" x2="64" y1="0" y2="64"><stop stop-color="#818cf8"/><stop offset="1" stop-color="#a855f7"/></linearGradient><linearGradient id="b" x1="32" x2="32" y1="0" y2="64"><stop stop-color="#6366f1"/><stop offset="1" stop-color="#7c3aed"/></linearGradient><linearGradient id="d" x1="0" x2="64" y1="32" y2="32"><stop stop-color="#4f46e5"/><stop offset="1" stop-color="#9333ea"/></linearGradient><radialGradient id="e" cx="50%" cy="50%" r="35%"><stop offset="0%" stop-color="#fff"/><stop offset="30%" stop-color="#e0e7ff" stop-opacity=".9"/><stop offset="70%" stop-color="#818cf8" stop-opacity=".3"/><stop offset="100%" stop-color="#6366f1" stop-opacity="0"/></radialGradient><radialGradient id="a" cx="50%" cy="50%" r="50%"><stop offset="0%" stop-color="#c7d2fe" stop-opacity=".15"/><stop offset="100%" stop-color="#6366f1" stop-opacity="0"/></radialGradient></defs><circle cx="32" cy="32" r="30" fill="url(#a)"/><path fill="url(#b)" fill-opacity=".08" stroke="url(#b)" stroke-linejoin="round" stroke-width="1.8" d="m32 3 21 8 8 21-8 21-21 8-21-8-8-21 8-21z"/><g fill="url(#c)" fill-opacity=".55" stroke="url(#b)" stroke-linejoin="round" stroke-width=".8"><path d="m32 5 5 19-5 6-5-6z"/><path d="m59 32-19 5-6-5 6-5z"/><path d="m32 59-5-19 5-6 5 6z"/><path d="m5 32 19-5 6 5-6 5z"/></g><g fill="url(#d)" fill-opacity=".4" stroke="url(#d)" stroke-linejoin="round" stroke-width=".6"><path d="m46.85 17.15-7.072 12.022-6.364 1.414 1.414-6.364z"/><path d="m46.85 46.85-12.022-7.072-1.414-6.364 6.364 1.414z"/><path d="m17.15 46.85 7.072-12.022 6.364-1.414-1.414 6.364z"/><path d="m17.15 17.15 12.022 7.072 1.414 6.364-6.364-1.414z"/></g><g fill="url(#b)" fill-opacity=".7" stroke-linejoin="round"><path d="m37.74 18.142-1.78 9.004-3.195 3.006-.132-4.384z"/><path d="m45.858 26.26-7.626 5.107-4.384-.132 3.006-3.194z"/><path d="m45.858 37.74-9.004-1.78-3.006-3.195 4.384-.132z"/><path d="m37.74 45.858-5.107-7.626.132-4.384 3.194 3.006z"/><path d="m26.26 45.858 1.78-9.004 3.195-3.006.132 4.384z"/><path d="m18.142 37.74 7.626-5.107 4.384.132-3.006 3.194z"/><path d="m18.142 26.26 9.004 1.78 3.006 3.195-4.384.132z"/><path d="m26.26 18.142 5.107 7.626-.132 4.384-3.194-3.006z"/></g><path fill="url(#c)" fill-opacity=".12" stroke="url(#c)" stroke-width=".6" d="m32 23 5.7 2.5L40 32l-2.3 6.5L32 41l-5.7-2.5L24 32l2.3-6.5z"/><g stroke="url(#c)" stroke-width=".4" opacity=".3"><path d="M53 11 32 32"/><path d="M53 53 32 32"/><path d="m11 53 21-21"/><path d="m11 11 21 21"/></g><circle cx="32" cy="32" r="8" fill="url(#e)"/><circle cx="32" cy="32" r="4" fill="#fff" opacity=".5"/><circle cx="32" cy="32" r="2" fill="#fff" opacity=".85"/></svg>