<svg xmlns="http://www.w3.org/2000/svg" viewBox="0 0 64 64" width="200" height="200"><defs><linearGradient id="a" x1="0" y1="0" x2="64" y2="64"><stop stop-color="#818cf8"/><stop offset="1" stop-color="#a855f7"/></linearGradient><linearGradient id="b" x1="32" y1="0" x2="32" y2="64"><stop stop-color="#6366f1"/><stop offset="1" stop-color="#7c3aed"/></linearGradient><linearGradient id="c" x1="0" y1="32" x2="64" y2="32"><stop stop-color="#4f46e5"/><stop offset="1" stop-color="#9333ea"/></linearGradient><radialGradient id="d" cx="50%" cy="50%" r="35%"><stop offset="0%" stop-color="#fff"/><stop offset="30%" stop-color="#e0e7ff" stop-opacity=".9"/><stop offset="70%" stop-color="#818cf8" stop-opacity=".3"/><stop offset="100%" stop-color="#6366f1" stop-opacity="0"/></radialGradient><radialGradient id="e" cx="50%" cy="50%" r="50%"><stop offset="0%" stop-color="#c7d2fe" stop-opacity=".15"/><stop offset="100%" stop-color="#6366f1" stop-opacity="0"/></radialGradient></defs><circle cx="32" cy="32" r="30" fill="url(#e)"/><polygon points="32,3 53,11 61,32 53,53 32,61 11,53 3,32 11,11" stroke="url(#b)" stroke-width="1.8" fill="url(#b)" fill-opacity=".08" stroke-linejoin="round"/><g fill="url(#a)" fill-opacity=".55" stroke="url(#b)" stroke-width=".8" stroke-linejoin="round"><path d="M32 5l5 19-5 6-5-6z"/><path d="M32 5l5 19-5 6-5-6z" transform="rotate(90 32 32)"/><path d="M32 5l5 19-5 6-5-6z" transform="rotate(180 32 32)"/><path d="M32 5l5 19-5 6-5-6z" transform="rotate(270 32 32)"/></g><g fill="url(#c)" fill-opacity=".4" stroke="url(#c)" stroke-width=".6" stroke-linejoin="round"><path d="M32 11l3.5 13.5L32 30l-3.5-5.5z" transform="rotate(45 32 32)"/><path d="M32 11l3.5 13.5L32 30l-3.5-5.5z" transform="rotate(135 32 32)"/><path d="M32 11l3.5 13.5L32 30l-3.5-5.5z" transform="rotate(225 32 32)"/><path d="M32 11l3.5 13.5L32 30l-3.5-5.5z" transform="rotate(315 32 32)"/></g><g fill="url(#b)" fill-opacity=".7" stroke-linejoin="round"><path d="M32 17l1.8 9L32 30l-1.8-4z" transform="rotate(22.5 32 32)"/><path d="M32 17l1.8 9L32 30l-1.8-4z" transform="rotate(67.5 32 32)"/><path d="M32 17l1.8 9L32 30l-1.8-4z" transform="rotate(112.5 32 32)"/><path d="M32 17l1.8 9L32 30l-1.8-4z" transform="rotate(157.5 32 32)"/><path d="M32 17l1.8 9L32 30l-1.8-4z" transform="rotate(202.5 32 32)"/><path d="M32 17l1.8 9L32 30l-1.8-4z" transform="rotate(247.5 32 32)"/><path d="M32 17l1.8 9L32 30l-1.8-4z" transform="rotate(292.5 32 32)"/><path d="M32 17l1.8 9L32 30l-1.8-4z" transform="rotate(337.5 32 32)"/></g><polygon points="32,23 37.7,25.5 40,32 37.7,38.5 32,41 26.3,38.5 24,32 26.3,25.5" stroke="url(#a)" stroke-width=".6" fill="url(#a)" fill-opacity=".12"/><g stroke="url(#a)" stroke-width=".4" opacity=".3"><line x1="53" y1="11" x2="32" y2="32"/><line x1="53" y1="53" x2="32" y2="32"/><line x1="11" y1="53" x2="32" y2="32"/><line x1="11" y1="11" x2="32" y2="32"/></g><circle cx="32" cy="32" r="8" fill="url(#d)"/><circle cx="32" cy="32" r="4" fill="#fff" opacity=".5"/><circle cx="32" cy="32" r="2" fill="#fff" opacity=".85"/></svg>
