<svg xmlns="http://www.w3.org/2000/svg" viewBox="0 0 64 64" width="512" height="512"><defs><linearGradient id="body" x1="10%" y1="10%" x2="90%" y2="90%"><stop offset="0" stop-color="#a78bfa"/><stop offset=".55" stop-color="#7c3aed"/><stop offset="1" stop-color="#4c1d95"/></linearGradient><linearGradient id="edge" x1="50%" y1="0%" x2="50%" y2="100%"><stop offset="0" stop-color="#c4b5fd"/><stop offset="1" stop-color="#6d28d9"/></linearGradient><radialGradient id="core" cx="50%" cy="50%" r="50%"><stop offset="0" stop-color="#ffffff"/><stop offset=".35" stop-color="#ede9fe" stop-opacity=".95"/><stop offset=".7" stop-color="#a78bfa" stop-opacity=".5"/><stop offset="1" stop-color="#7c3aed" stop-opacity="0"/></radialGradient><radialGradient id="halo" cx="50%" cy="50%" r="50%"><stop offset="0" stop-color="#8b5cf6" stop-opacity=".35"/><stop offset=".7" stop-color="#4c1d95" stop-opacity=".08"/><stop offset="1" stop-color="#0f172a" stop-opacity="0"/></radialGradient></defs><circle cx="32" cy="32" r="30" fill="url(#halo)"/><polygon points="32,4 52,12 60,32 52,52 32,60 12,52 4,32 12,12" fill="url(#body)" stroke="url(#edge)" stroke-width="1.6" stroke-linejoin="round"/><g opacity=".42" fill="#c4b5fd"><polygon points="32,4 52,12 32,32"/><polygon points="52,52 60,32 32,32"/><polygon points="12,52 32,60 32,32"/><polygon points="4,32 12,12 32,32"/></g><g opacity=".28" fill="#1e1b4b"><polygon points="52,12 60,32 32,32"/><polygon points="32,60 52,52 32,32"/><polygon points="12,12 32,4 32,32"/><polygon points="12,52 4,32 32,32"/></g><g stroke="#ede9fe" stroke-width=".9" opacity=".55" stroke-linecap="round"><line x1="32" y1="32" x2="32" y2="8"/><line x1="32" y1="32" x2="50" y2="14"/><line x1="32" y1="32" x2="56" y2="32"/><line x1="32" y1="32" x2="50" y2="50"/><line x1="32" y1="32" x2="32" y2="56"/><line x1="32" y1="32" x2="14" y2="50"/><line x1="32" y1="32" x2="8" y2="32"/><line x1="32" y1="32" x2="14" y2="14"/></g><circle cx="32" cy="32" r="7.5" fill="url(#core)"/><circle cx="32" cy="32" r="2.5" fill="#ffffff"/></svg>
