<svg xmlns="http://www.w3.org/2000/svg" viewBox="0 0 260 200" fill="none" aria-label="AdvoVisions">
  <!-- AdvoVisions monogram — approximation of the supplied brand mark.
       Two interlocked lowercase forms (a + g) in royal blue. Replace this
       file with the official export for pixel-perfect fidelity. -->
  <g fill="#2437c8">
    <!-- Right 'g' body: top circle, descender, and tail -->
    <path d="M170 2
             h50 a6 6 0 0 1 6 6
             v160
             a28 28 0 0 1 -28 28
             h-48
             a34 34 0 0 1 -34 -34
             v-2
             a34 34 0 0 1 34 -34
             h48
             a6 6 0 0 0 6 -6
             v-112
             a6 6 0 0 1 6 -6 z" />
    <!-- Right inner notch (top aperture of g) -->
    <path fill="#ffffff"
          d="M148 50
             a36 34 0 0 1 36 -34
             a24 22 0 0 1 22 28
             a30 22 0 0 1 -34 18
             a22 20 0 0 1 -24 -12 z" />

    <!-- Left 'a' body: thick rounded D with teardrop aperture -->
    <path d="M6 100
             a72 78 0 0 1 72 -78
             h22
             a56 62 0 0 1 56 62
             v90
             a24 24 0 0 1 -24 24
             h-56
             a70 74 0 0 1 -70 -70 z" />
    <!-- Left teardrop counter -->
    <path fill="#ffffff"
          d="M78 40
             a30 30 0 0 1 30 30
             v22
             a18 22 0 0 1 -22 22
             a24 24 0 0 1 -20 -24
             a34 40 0 0 1 12 -50 z" />
    <!-- Left small 'eye' dot -->
    <circle cx="70" cy="156" r="10" fill="#2437c8" />
  </g>
</svg>
